DataType=double
version=3
OpenSimVersion=4.5
endheader
time	pelvis_tilt	pelvis_list	pelvis_rotation	pelvis_tx	pelvis_ty	pelvis_tz	hip_flexion_r	hip_adduction_r	hip_rotation_r	knee_angle_r	knee_frontal_r	knee_adduction_r	knee_angle_r_beta	ankle_angle_r	subtalar_angle_r	mtp_angle_r	hip_flexion_l	hip_adduction_l	hip_rotation_l	knee_angle_l	knee_frontal_l	knee_adduction_l	knee_angle_l_beta	ankle_angle_l	subtalar_angle_l	mtp_angle_l	lumbar_extension	lumbar_bending	lumbar_rotation	arm_flex_r	arm_add_r	arm_rot_r	elbow_flex_r	pro_sup_r	wrist_flex_r	wrist_dev_r	arm_flex_l	arm_add_l	arm_rot_l	elbow_flex_l	pro_sup_l	wrist_flex_l	wrist_dev_l
2.03	-0.1299300216974558	0.02954305125850683	-0.09941731016084474	0.8123512779799013	0.9695724522483089	0.4740813125650211	0.5757636356879969	-0.02903127726202918	0.09758808104554559	1.115611238152205	0	0	1.115611238152205	0.03360373977275518	-0.07447799090527117	-0.1992171580183643	0.1977051625346998	0.04630291888852801	0.02335079773146927	0.3074757468303664	0	0	0.3074757468303664	0.1575549835172671	-0.06498118824341663	-0.2082532241879393	-0.060502226028055	0.01484423039264548	-0.003926941710141785	-0.08223214525128401	-0.2589225332159559	-0.006062464568515669	0.5935217599057319	1.57079633	0	0	-0.05098498227769489	-0.3676343649835233	0.1070931035492656	0.7946776483783737	1.57079633	0	0
2.035	-0.1303723952000536	0.02931819957954485	-0.0970102814381564	0.8121542686717955	0.969808356118289	0.4741327121857523	0.5815607419811746	-0.02825667184356381	0.09558375982023706	1.094642036196496	0	0	1.094642036196496	0.03825260005960549	-0.07376186246401878	-0.1991415819124361	0.1894372282271798	0.04653216628536425	0.02496631986222402	0.3032582266338386	0	0	0.3032582266338386	0.1585772554653906	-0.06170378532083154	-0.2115521791003822	-0.05984653160898067	0.01551953075205208	-0.004019311995736037	-0.08916363765204151	-0.2574679783020316	-0.009175657645710045	0.5882571083351156	1.57079633	0	0	-0.04383753417836357	-0.3712332795557315	0.1072773467778857	0.8031320981144104	1.57079633	0	0
2.04	-0.1307701763581416	0.02922167431072639	-0.09452944509996196	0.8119672404809175	0.9700038062395582	0.4741950986116458	0.5867554364259775	-0.02778916606989949	0.09362682568707592	1.072312080413811	0	0	1.072312080413811	0.04210707330468552	-0.07337847019126925	-0.1987796771736514	0.1811288368272193	0.04686173269589257	0.02666687526234749	0.2990412741382123	0	0	0.2990412741382123	0.1595010949461532	-0.05853624802655673	-0.2149375099772728	-0.05922442438551246	0.01597623227758355	-0.004104541504715179	-0.09610101404341931	-0.2559448273058098	-0.01247711666028734	0.5832751560617411	1.57079633	0	0	-0.03678579434206276	-0.3748798443690469	0.1075986549509621	0.8118559699845901	1.57079633	0	0
2.045	-0.1311254531162605	0.02926036726912368	-0.09198970256064118	0.8117902389274659	0.9701578320835802	0.4742690273009409	0.5913469646044178	-0.02763012470261241	0.0917484398254948	1.048632008056117	0	0	1.048632008056117	0.0452234367307803	-0.07329516692237617	-0.1981463165809871	0.172783367637369	0.04729515583319963	0.02844571833367835	0.2948317334111391	0	0	0.2948317334111391	0.160321412051907	-0.05548895133159006	-0.2183993385217873	-0.0586355590201746	0.01620631020750461	-0.004182011003951866	-0.1030246677307453	-0.2543528617426832	-0.01594828949948191	0.5785714925885332	1.57079633	0	0	-0.02983860110948616	-0.3785685435905617	0.1080487168143227	0.8208384884028307	1.57079633	0	0
2.05	-0.1314417189989368	0.0294406542346698	-0.08940529129186439	0.8116232516525514	0.9702694816760717	0.4743550260183383	0.5953382900916317	-0.02777873986491953	0.08997773552361646	1.023618898070239	0	0	1.023618898070239	0.04766646330493079	-0.07347296500543898	-0.1972620737239715	0.1644065028711948	0.04783594872269922	0.03029588995938066	0.2906376766574144	0	0	0.2906376766574144	0.1610328335997342	-0.05257040065508196	-0.2219265833040775	-0.05807795444629506	0.01620299570688797	-0.004251280839531367	-0.1099158841363016	-0.2526930481824809	-0.0195692145675998	0.5741415439120257	1.57079633	0	0	-0.02300425218047757	-0.3822935151039064	0.1086181233614679	0.8300659582115927	1.57079633	0	0
2.055	-0.1317238134016284	0.0297683330199942	-0.08678969047554025	0.8114662124277653	0.9703378229687983	0.4744535865505621	0.5987364346685784	-0.02823212341064447	0.08834153938895405	0.9972978643069247	0	0	0.9972978643069247	0.04950803855286148	-0.07386740881017483	-0.1961520276667201	0.1560061936373952	0.04848757636833631	0.03221020944287202	0.2864684160365667	0	0	0.2864684160365667	0.1616302881011135	-0.04978699102724694	-0.2255071736059324	-0.05754806007451679	0.01596081970155062	-0.004312039401373651	-0.1167569136621735	-0.250967513452428	-0.02331875063987429	0.569980510383491	1.57079633	0	0	-0.01629048116376754	-0.386048578802441	0.1092965162098564	0.8395219568456707	1.57079633	0	0
2.06	-0.131977812773428	0.03024851439247156	-0.08415554015173998	0.811319008807029	0.9703619523691778	0.4745651574608363	0.601552700880819	-0.02898536634757903	0.08686409449958372	0.9697035275614904	0	0	0.9697035275614904	0.05082572374497835	-0.07442950763819907	-0.1948445878981253	0.1475925342690631	0.04925337145753794	0.03418125933570774	0.2823344674982112	0	0	0.2823344674982112	0.1621095847291288	-0.04714277699125249	-0.2291284076535178	-0.0570408772143093	0.0154756998871034	-0.004364039682300044	-0.1235310309412182	-0.2491795015088301	-0.02717486107688524	0.5660832933586735	1.57079633	0	0	-0.0097044392301667	-0.3898272541091768	0.1100727550879128	0.8491875872418322	1.57079633	0	0
2.065	-0.1322108766062263	0.03088546975832069	-0.08151457530971655	0.811181493329664	0.970341009730621	0.4746901378946903	0.6038027735071516	-0.0300315653780398	0.08556678989613499	0.9408813276569405	0	0	0.9408813276569405	0.05170127841414727	-0.07510671183444462	-0.1933703746951171	0.139177553700632	0.05013639185779568	0.03620136028720231	0.2782474746430471	0	0	0.2782474746430471	0.1624679678610553	-0.04463926139976177	-0.2327774530242322	-0.05655013062223026	0.01474506973811868	-0.004407029465359077	-0.130222579438068	-0.2473333161040439	-0.03111494100727499	0.5624444160747437	1.57079633	0	0	-0.003252684523130725	-0.3936227654833789	0.1109350991357763	0.8590417795184199	1.57079633	0	0
2.07	-0.1324310550426264	0.03168244330290289	-0.07887757653623771	0.8110534978734937	0.9702741985956865	0.474828872526338	0.6055067029208188	-0.03136181994157795	0.08446790346662292	0.9108886409931429	0	0	0.9108886409931429	0.05221915487343752	-0.07584391506985132	-0.1917611862520985	0.1307749375582367	0.05113922651431604	0.03826253269601928	0.2742201026130626	0	0	0.2742201026130626	0.1627046289855542	-0.04227521191257359	-0.2364419810921893	-0.05606848190709254	0.01376804380404203	-0.004440680947087214	-0.1368170004660258	-0.2454342538853267	-0.03511617029855558	0.5590579457173389	1.57079633	0	0	0.003058818438472305	-0.397428035630861	0.1118713940489345	0.8690616257708043	1.57079633	0	0
2.075	-0.1326470657517224	0.03264143784812321	-0.07625433814857384	0.810934850686279	0.9701608103655202	0.4749816477275183	0.6066887759608421	-0.03296520509441566	0.0835823658098878	0.8797956721939573	0	0	0.8797956721939573	0.05246497792452678	-0.0765844670752463	-0.1900490785041999	0.1223996961031086	0.05226375826634014	0.04035644311756942	0.2702659123767226	0	0	0.2702659123767226	0.1628211579934668	-0.04004651436191371	-0.2401109212973627	-0.05558777547602657	0.01254561125451892	-0.004464525095216467	-0.1433008464043628	-0.2434885322437906	-0.03915587357216441	0.5559174232558625	1.57079633	0	0	0.009224687468036688	-0.4012356670558477	0.1128692565464069	0.8792227327767397	1.57079633	0	0
2.08	-0.1328680469689687	0.0337629836843014	-0.07365365362904451	0.8108253956650047	0.9700002512127587	0.475148688969492	0.6073772800229328	-0.03482872649410657	0.08292155176417668	0.8476860915099683	0	0	0.8476860915099683	0.05252402380925054	-0.07727118310655548	-0.1882655768823783	0.1140677922490918	0.05351089263134994	0.04247433538819605	0.2663992253153494	0	0	0.2663992253153494	0.1628219164442728	-0.03794607220064156	-0.2437753149637991	-0.05509930858422025	0.01108084902052204	-0.004477895263334639	-0.149661778556483	-0.2415032154447931	-0.04321187045514792	0.5530158061573441	1.57079633	0	0	0.015240097924585	-0.4050379134682451	0.1139162487789433	0.8894995805569249	1.57079633	0	0
2.085	-0.1331032923980939	0.03504589900859408	-0.07108331707755665	0.810725013500658	0.9697920707718868	0.4753301593811164	0.6076041656145292	-0.03693726418019423	0.0824931048830312	0.8146573933057294	0	0	0.8146573933057294	0.05247971338562134	-0.07784733859604409	-0.1864410320505692	0.1057957423299362	0.0548802615637525	0.04460694852099505	0.2626349874275409	0	0	0.2626349874275409	0.1627143165337307	-0.03596376098154913	-0.2474292425771286	-0.05459411859328049	0.009379146034472281	-0.004479883755181812	-0.155888550550662	-0.2394861417123511	-0.04726280277504784	0.5503454274752894	1.57079633	0	0	0.0211007431232139	-0.4088266433076365	0.1150000371358541	0.8998658786397824	1.57079633	0	0
2.09	-0.1333619729197698	0.03648705017023877	-0.06855013852845473	0.810633644297015	0.9695359917919503	0.4755261593258591	0.607404613100188	-0.03927351223526264	0.08230079897791501	0.7808209559450958	0	0	0.7808209559450958	0.05241213559231949	-0.0782576392384001	-0.1846041246730859	0.0976002013587513	0.05636991129893745	0.04674442517637518	0.2589886420404031	0	0	0.2589886420404031	0.1625089912154508	-0.03408644624704565	-0.2510707930871349	-0.05406328166346477	0.00744843006555632	-0.004469314244285306	-0.1619709785069516	-0.2374458530996117	-0.05128842886407266	0.5478979735330087	1.57079633	0	0	0.02680277910248523	-0.4125932982676778	0.1161085316209075	0.9102949150706932	1.57079633	0	0
2.095	-0.133652850202453	0.03808112028294054	-0.0660599704270675	0.8105513111701846	0.9692319399429593	0.4757367268587911	0.6068165116224864	-0.04181792218052739	0.08234444044889599	0.7463017901262196	0	0	0.7463017901262196	0.0523966187866592	-0.07844915759771663	-0.1827815179468564	0.08949754477781208	0.05797598420887198	0.04887621571395604	0.2554760196399395	0	0	0.2554760196399395	0.1622198431609817	-0.03229807237286308	-0.2547030391453277	-0.05349821720308821	0.005299387710746062	-0.004444732272350133	-0.1678998993943124	-0.2353915290403605	-0.05526987750792468	0.5456644815802372	1.57079633	0	0	0.03234275376597341	-0.416328850278963	0.1172300029746215	0.9207598947407446	1.57079633	0	0
